PathFileType	4	(X/Y/Z)	C:/Users/opensim2020/Desktop/walking_exp_matlab/subject06_walking17_straight_03.trc																																																																																																																																					
DataRate	CameraRate	NumFrames	NumMarkers	Units	OrigDataRate	OrigDataStartFrame	OrigNumFrames																																																																																																																																	
100	100	7	45	mm	100	3281	295																																																																																																																																	
Frame#	Time	LFHD			RFHD			LBHD			RBHD			C7			T10			CLAV			STRN			RBAK			LSHO			LUPA			LELB			LFRM			LWRA			LWRB			LFIN			RSHO			RUPA			RELB			RFRM			RWRA			RWRB			RFIN			LASI			RASI			LPSI			RPSI			LTHI			LKNE			LTIB			LANK			LHEE			LTOE			RTHI			RKNE			RTIB			RANK			RHEE			RTOE			*39			*40			*41			*42			*43			*44		
		X1	Y1	Z1	X2	Y2	Z2	X3	Y3	Z3	X4	Y4	Z4	X5	Y5	Z5	X6	Y6	Z6	X7	Y7	Z7	X8	Y8	Z8	X9	Y9	Z9	X10	Y10	Z10	X11	Y11	Z11	X12	Y12	Z12	X13	Y13	Z13	X14	Y14	Z14	X15	Y15	Z15	X16	Y16	Z16	X17	Y17	Z17	X18	Y18	Z18	X19	Y19	Z19	X20	Y20	Z20	X21	Y21	Z21	X22	Y22	Z22	X23	Y23	Z23	X24	Y24	Z24	X25	Y25	Z25	X26	Y26	Z26	X27	Y27	Z27	X28	Y28	Z28	X29	Y29	Z29	X30	Y30	Z30	X31	Y31	Z31	X32	Y32	Z32	X33	Y33	Z33	X34	Y34	Z34	X35	Y35	Z35	X36	Y36	Z36	X37	Y37	Z37	X38	Y38	Z38	X39	Y39	Z39	X40	Y40	Z40	X41	Y41	Z41	X42	Y42	Z42	X43	Y43	Z43	X44	Y44	Z44	X45	Y45	Z45
																																																																																																																																								
74	0.73	-320.55029	1667.63647	-1099.55432	-338.52295	1654.21887	-969.29883	-449.38937	1609.37744	-1120.18323	-466.21671	1600.48425	-992.36664	-454.83701	1455.30786	-1060.68689	-497.9227	1127.53528	-1050.11389	-348.46536	1374.3103	-1048.19556	-314.29861	1198.05627	-1047.49585	-538.24786	1289.99976	-981.33734	-386.65024	1402.48267	-1214.37695	-357.7218	1199.48364	-1280.05408	-337.73999	1088.01794	-1289.0614	-265.18353	954.92389	-1297.12927	-176.62225	870.58649	-1239.18359	-225.8573	842.32593	-1281.7323	-157.30528	784.22931	-1274.27893	-401.36148	1411.97229	-891.52979	-451.19861	1216.82764	-802.34064	-447.36703	1094.61914	-788.13635	-433.43591	975.38928	-768.89001	-373.58295	834.78766	-798.26477	-427.65894	838.35913	-757.11597	-391.50052	761.79639	-754.28564	-310.36157	962.65186	-1138.54248	-331.73636	976.35669	-917.5022	-470.65402	992.08142	-1123.44763	-480.03613	995.78101	-955.16925	-393.23083	648.27222	-1186.70532	-411.53809	485.15729	-1162.18433	-466.32852	235.4073	-1141.5083	-485.61938	64.26536	-1090.23547	-525.10828	52.51977	-1042.38708	-341.55579	36.17171	-1093.45898	-318.97845	647.86365	-857.48364	-276.27454	528.7868	-880.17151	-343.9559	274.68106	-880.86401	-381.61398	91.09439	-920.61694	-422.94504	69.61044	-966.39893	-236.27495	40.25036	-918.8241	-429.25351	1701.49426	-1054.86572	NaN	NaN	NaN	NaN	NaN	NaN	NaN	NaN	NaN	NaN	NaN	NaN	NaN	NaN	NaN
75	0.74	-315.07257	1667.30908	-1099.23059	-333.104	1653.80371	-969.01581	-443.8497	1609.14709	-1120.06299	-460.86823	1600.10901	-992.24902	-449.33444	1455.0802	-1060.86047	-492.87878	1127.34741	-1050.20972	-343.09866	1374.01404	-1048.15271	-309.03067	1197.7301	-1047.52893	-532.99927	1289.70142	-981.65692	-380.8179	1402.3512	-1214.38281	-351.18185	1199.54175	-1279.91577	-330.64209	1088.04883	-1288.81909	-256.94299	955.56183	-1295.9845	-167.96661	872.21814	-1237.0791	-216.60847	843.33844	-1279.98987	-147.81204	785.71039	-1271.41284	-396.27167	1411.63489	-891.55426	-446.64236	1216.57397	-802.53503	-442.83636	1094.39331	-788.13904	-429.16006	975.16565	-768.69501	-369.26721	834.51575	-797.36853	-423.54031	837.84296	-757.0528	-387.59689	761.52136	-753.43073	-305.61047	962.04321	-1139.01538	-326.38959	976.09125	-917.77777	-465.66223	991.74261	-1123.48047	-475.04599	995.6347	-955.09332	-389.19174	647.87866	-1186.5708	-407.93756	484.8017	-1162.00488	-464.66876	235.33702	-1141.32813	-485.34326	64.34441	-1090.07703	-524.96063	52.69934	-1042.26013	-341.25867	36.28371	-1093.49976	-313.56573	647.95923	-856.94623	-270.78809	528.83264	-880.32501	-330.30069	272.59186	-881.38538	-361.13211	87.81459	-921.23077	-401.86942	65.41351	-966.97833	-214.26602	40.87673	-920.09607	-423.78308	1701.14722	-1054.63953	NaN	NaN	NaN	NaN	NaN	NaN	NaN	NaN	NaN	NaN	NaN	NaN	NaN	NaN	NaN
76	0.75	-309.47574	1667.03394	-1098.79785	-327.68365	1653.3291	-968.61566	-438.2514	1608.85815	-1119.88318	-455.46347	1599.75171	-992.15656	-443.98166	1454.78284	-1060.87329	-487.64145	1127.03149	-1050.28235	-337.72501	1373.64636	-1048.02417	-303.75177	1197.37012	-1047.52478	-527.87958	1289.29688	-981.909	-375.06345	1402.15759	-1214.23669	-344.60712	1199.5332	-1279.71729	-323.47015	1087.98376	-1288.39917	-248.71187	956.0921	-1294.75244	-159.4156	873.7854	-1235.00427	-207.51079	844.39301	-1278.13745	-138.47554	787.0061	-1268.56128	-391.19824	1411.26208	-891.51959	-442.02829	1216.15344	-802.82996	-438.28229	1094.10913	-788.11304	-424.78015	974.87103	-768.43878	-364.90939	834.16443	-796.41888	-419.57748	837.54694	-756.67529	-383.70636	761.24408	-752.65253	-300.37741	961.55219	-1139.14807	-321.00745	975.88409	-918.05353	-460.64398	991.27319	-1123.57581	-469.7084	995.36597	-955.14539	-385.1647	647.45056	-1186.52393	-404.51443	484.47025	-1161.83533	-463.10837	235.22206	-1141.13074	-485.0723	64.47692	-1089.95459	-524.82416	52.93167	-1042.13843	-341.20261	36.21201	-1093.45886	-308.48077	647.62903	-856.7843	-265.66422	528.67212	-880.33282	-316.88672	270.6676	-881.86542	-340.72897	84.88333	-921.72125	-381.00415	61.52004	-967.44067	-192.4668	42.11062	-921.25555	-418.22415	1700.8396	-1054.32007	NaN	NaN	NaN	NaN	NaN	NaN	NaN	NaN	NaN	NaN	NaN	NaN	NaN	NaN	NaN
77	0.76	-303.8656	1666.58105	-1098.30334	-322.20892	1652.76978	-968.28107	-432.69742	1608.60791	-1119.6731	-450.05893	1599.31604	-991.98724	-438.60501	1454.32959	-1060.81714	-482.42032	1126.67773	-1050.29053	-332.33517	1373.18738	-1047.89343	-298.44626	1197.00061	-1047.5105	-522.47614	1288.95313	-982.10132	-369.27737	1401.92371	-1214.1178	-338.19693	1199.43811	-1279.47009	-316.36368	1088.05542	-1288.08557	-240.6275	956.66632	-1293.5719	-150.97305	875.2597	-1233.05798	-198.56854	845.28693	-1276.38184	-129.31184	788.25635	-1265.78955	-386.07776	1410.82959	-891.43243	-437.38968	1215.91992	-802.9082	-433.64798	1093.77869	-788.04193	-420.37091	974.54059	-768.17175	-360.41324	833.79541	-795.53284	-415.66367	837.45306	-756.03564	-379.70618	760.85461	-751.8407	-295.47714	961.17828	-1139.28894	-315.43686	975.56097	-918.25641	-455.57483	990.80902	-1123.64282	-464.25671	995.02228	-955.22968	-381.15436	646.99811	-1186.52295	-401.0759	484.14505	-1161.63184	-463.06458	234.21295	-1141.01123	-484.81085	64.59924	-1089.83435	-524.67108	53.14552	-1042.04675	-341.06833	36.20806	-1093.51489	-303.77618	647.09766	-856.83429	-260.34973	528.17017	-880.28442	-303.65924	268.87381	-882.24994	-320.52557	82.35011	-922.11792	-360.07709	57.8864	-967.85864	-170.69717	43.74923	-922.43365	-412.68719	1700.48108	-1053.97754	NaN	NaN	NaN	NaN	NaN	NaN	NaN	NaN	NaN	NaN	NaN	NaN	NaN	NaN	NaN
78	0.77	-298.2124	1666.16455	-1097.8761	-316.79443	1652.1814	-967.76343	-427.06497	1608.28723	-1119.38574	-444.62228	1598.8418	-991.67383	-433.20349	1453.88	-1060.74756	-477.12042	1126.2478	-1050.23645	-326.92715	1372.76282	-1047.77917	-293.06229	1196.57422	-1047.48267	-517.25134	1288.41431	-982.22034	-363.58035	1401.70337	-1213.9021	-331.84698	1199.40796	-1279.37927	-309.24985	1087.89099	-1287.71619	-232.55766	957.13043	-1292.38855	-142.61998	876.56708	-1231.17322	-189.70865	846.18231	-1274.60071	-120.46046	789.38849	-1263.0697	-380.92621	1410.34766	-891.30322	-432.45905	1215.44653	-802.87	-428.93069	1093.38049	-787.90558	-415.9451	974.14832	-767.81335	-355.97513	833.37457	-794.64697	-411.28748	836.77203	-755.92609	-375.62238	760.42413	-751.12256	-290.44162	960.66809	-1139.55933	-309.73621	975.13666	-918.50873	-450.45447	990.24475	-1123.69202	-458.74551	994.6272	-955.2652	-377.05954	646.47424	-1186.50867	-397.51443	483.6947	-1161.50342	-459.80771	235.20789	-1140.85522	-484.52783	64.72388	-1089.72314	-524.53278	53.41388	-1041.97388	-341.0184	36.21886	-1093.51794	-298.84653	646.57971	-856.52618	-255.61783	527.55292	-880.33606	-290.83936	267.2558	-882.58051	-300.52924	80.17255	-922.4317	-339.27127	54.77359	-968.16187	-149.49947	45.72086	-923.07806	-407.03964	1700.09985	-1053.58655	NaN	NaN	NaN	NaN	NaN	NaN	NaN	NaN	NaN	NaN	NaN	NaN	NaN	NaN	NaN
79	0.78	-292.58749	1665.66565	-1097.26477	-311.31116	1651.55554	-967.22339	-421.42795	1607.92969	-1119.07288	-439.11508	1598.41724	-991.46912	-427.69376	1453.32227	-1060.58826	-471.65906	1125.75134	-1050.12292	-321.52982	1372.27917	-1047.52246	-287.56665	1196.15723	-1047.41516	-511.81433	1287.8186	-982.26312	-358.01529	1401.35449	-1213.65967	-325.55368	1199.13147	-1278.92468	-302.31491	1087.88037	-1287.18921	-224.68124	957.49402	-1291.255	-134.70418	877.5423	-1229.23889	-181.11166	846.95966	-1272.94946	-111.65978	790.40613	-1260.49512	-375.66409	1409.76025	-891.15228	-427.39706	1214.93787	-802.62952	-424.17682	1092.9165	-787.69611	-411.3696	973.66663	-767.47174	-351.37524	832.80426	-793.77551	-406.93848	836.30969	-755.47461	-371.3811	759.92133	-750.39069	-285.36475	960.05371	-1139.84668	-304.08624	974.56927	-918.71759	-445.25882	989.60461	-1123.70227	-452.85959	994.09607	-955.42035	-372.92502	645.89032	-1186.4563	-394.03726	483.16406	-1161.00964	-458.16794	235.14101	-1140.73267	-484.28976	64.89185	-1089.55286	-524.38794	53.65096	-1041.81726	-341.02786	36.08213	-1093.49634	-293.87982	645.8009	-856.18262	-250.54556	526.67932	-880.39148	-278.10092	265.79489	-882.89325	-280.75491	78.40742	-922.62671	-318.60736	52.03487	-968.57343	-128.74846	47.8439	-923.57092	-401.3895	1699.61816	-1053.06543	NaN	NaN	NaN	NaN	NaN	NaN	NaN	NaN	NaN	NaN	NaN	NaN	NaN	NaN	NaN
80	0.79	-286.94785	1664.94336	-1096.62024	-305.84909	1650.86597	-966.72577	-415.84238	1607.51404	-1118.69092	-433.78009	1597.81946	-990.9964	-422.36475	1452.76245	-1060.35107	-466.10492	1125.12256	-1049.96191	-316.06964	1371.69971	-1047.26965	-282.03528	1195.61792	-1047.33496	-506.19458	1287.23132	-982.22278	-352.49149	1400.89673	-1213.34021	-319.22543	1198.88464	-1278.56042	-295.40082	1087.74231	-1286.66492	-216.87044	957.7973	-1290.0957	-126.52	878.79004	-1227.60376	-172.57823	847.6662	-1271.39197	-103.06736	791.33167	-1258.03149	-370.35394	1409.10925	-890.91876	-422.38223	1214.33398	-802.56506	-419.32025	1092.36084	-787.50128	-406.74728	973.14148	-767.06427	-346.70105	832.24677	-792.95355	-402.48425	835.7041	-755.01508	-366.98251	759.32574	-749.69086	-280.29492	959.33569	-1140.11023	-298.13486	974.00293	-919.08984	-440.04651	989.08356	-1123.58655	-447.41446	993.62976	-955.15845	-368.78604	645.30603	-1186.36511	-390.30792	482.6228	-1160.97998	-456.51154	235.05449	-1140.64648	-484.08517	65.0351	-1089.38086	-524.25116	53.8985	-1041.64209	-341.28577	35.86711	-1093.35156	-288.7764	645.08484	-855.54126	-245.75151	525.67279	-880.46069	-265.50067	264.46976	-883.16553	-261.38684	77.05505	-922.63904	-298.43668	49.97966	-968.53326	-108.35963	50.17411	-923.828	-395.70883	1699.11829	-1052.63965	NaN	NaN	NaN	NaN	NaN	NaN	NaN	NaN	NaN	NaN	NaN	NaN	NaN	NaN	NaN
